Simulation
nRows=28
nColumns=15
endheader
time  TH_x TH_y TH_z SC_y  SC_z  SC_x  AC_y  AC_z  AC_x  GH_y  GH_z  GH_yy  EL_x  PS_y
5.362  0.000000  0.000000  0.000000  -34.44793134680933  7.788921778643691  -2.423733476047662  52.101811037837514  19.679194760975253  7.707707433391602  7.609048666809064  79.51270661249511  -12.020004271529444  13.534709530533867  120.000000
5.4156200000000005  0.000000  0.000000  0.000000  -34.32371127107062  7.718112132451963  -1.3958054218696112  52.387814701064606  19.133294969981122  7.144631951892686  7.3923432615794775  79.47873810671587  -11.999128677811477  13.5920271022505  120.000000
5.46924  0.000000  0.000000  0.000000  -33.90136746797606  7.507301251986128  -0.7675577949781761  52.791245047465445  18.457528017010013  6.59924487449391  7.036220468539243  79.35443329777318  -11.458045570090107  13.460597760295384  120.000000
5.52286  0.000000  0.000000  0.000000  -33.16986589138271  7.1593821685593  -0.6090111897861907  53.30625603793974  17.622157585229477  6.10445913073306  6.521869342231794  79.15864161419364  -10.457099722329069  13.19776584808623  120.000000
5.57648  0.000000  0.000000  0.000000  -32.13017739814996  6.679279389900471  -0.959135934666244  53.906698988868534  16.621850362486274  5.718768946689534  5.830378868135453  78.85482118144482  -9.09440527719604  12.887045721979906  120.000000
5.6301000000000005  0.000000  0.000000  0.000000  -30.805501322909727  6.092462789548381  -1.7908010738175058  54.534549374814794  15.511727315115989  5.526702021933643  4.9611645265437865  78.28350148963938  -7.490202440111271  12.607344815190753  120.000000
5.68372  0.000000  0.000000  0.000000  -29.234985865652902  5.438021816441348  -3.0411246112509405  55.12334984145092  14.383513834965928  5.598787249102331  3.9205125955055498  77.26301525631533  -5.7430256750101965  12.405948107253625  120.000000
5.73734  0.000000  0.000000  0.000000  -27.46860493082476  4.75408547159602  -4.637525050849332  55.61968313633926  13.331190179707498  5.962627110602846  2.7241056139729505  75.6833447778817  -3.9054199723584753  12.290988055814378  120.000000
5.79096  0.000000  0.000000  0.000000  -25.57281611818922  4.076198097048113  -6.492216615983093  55.990959064073074  12.43618089303098  6.597966127637374  1.4149842450268115  73.49824328702675  -1.9970789517186172  12.24357801341391  120.000000
5.8445800000000006  0.000000  0.000000  0.000000  -23.633572198363712  3.434442549790277  -8.504553922856493  56.22578922098095  11.754612396740521  7.443242574413177  0.07403801158965198  70.7095575533191  -0.022929423009911243  12.234957060724033  120.000000
5.8982  0.000000  0.000000  0.000000  -21.755340921146033  2.853873166772539  -10.56808993879138  56.32406208797094  11.315292233675295  8.412630110718268  -1.1809252119530416  67.35278106048474  2.0114896050626196  12.239445710504064  120.000000
5.95182  0.000000  0.000000  0.000000  -20.051494666656772  2.356971659815773  -12.578219049835104  56.28302855170634  11.12678611276073  9.414609896243212  -2.210252902949515  63.486390760092306  4.091415578886571  12.23809758433209  120.000000
6.00544  0.000000  0.000000  0.000000  -18.63607546867167  1.9772677287659686  -14.443110699265992  56.090924670802565  11.183462833989461  10.351985290647914  -2.8819914842468406  59.18402478021397  6.193475372231849  12.215839351936614  120.000000
6.059060000000001  0.000000  0.000000  0.000000  -17.59291401205461  1.7497924888342515  -16.080866834950882  55.735258026423985  11.468117973828045  11.132912840163772  -3.08958431401605  54.52633609851175  8.288207275204558  12.16304557342756  120.000000
6.11268  0.000000  0.000000  0.000000  -16.946488527964448  1.6831962743657327  -17.410938482150815  55.22124552025222  11.95078163634256  11.70324319797106  -2.7520794752415276  49.595452202852805  10.33717060828905  12.086443892558  120.000000
6.1663  0.000000  0.000000  0.000000  -16.672848585362715  1.7660562886210016  -18.3771263520942  54.58525686085638  12.593607347860107  12.042575147179106  -1.8307955747150009  44.48866074096809  12.29504786064493  12.007498978839447  120.000000
6.21992  0.000000  0.000000  0.000000  -16.72623258622464  1.9707094708525916  -18.959075909415308  53.887421092066305  13.35609435837319  12.160391382994272  -0.3367786061992067  39.330664352959985  14.116119387592127  11.957147119495135  120.000000
6.273540000000001  0.000000  0.000000  0.000000  -17.05115250671365  2.253167650967847  -19.171993469095124  53.19899595623151  14.19610967860353  12.09485792862195  1.6776631575441587  34.26559899814063  15.76106788883092  11.971534457614066  120.000000
6.32716  0.000000  0.000000  0.000000  -17.584257453529705  2.562149850185426  -19.055729500255875  52.597624379526515  15.068362914162943  11.889000456493738  4.132076982815658  29.440254941541976  17.2007540624101  12.087376395775967  120.000000
6.38078  0.000000  0.000000  0.000000  -18.247766310354148  2.8492320169259093  -18.649546885520714  52.1571548241618  15.922162448015486  11.578202126888236  6.927309563645083  24.97908801004097  18.418981748548322  12.338317587571765  120.000000
6.4344  0.000000  0.000000  0.000000  -18.952553753901665  3.0770469237425733  -17.990776922854927  51.92405971561251  16.71443381308076  11.195836853250249  9.938271205757975  20.960769934407537  19.423763933302766  12.74860908137508  120.000000
6.488020000000001  0.000000  0.000000  0.000000  -19.616074441378636  3.231361221737278  -17.121573589590557  51.905664661167506  17.422152983674977  10.776645259949975  13.014429075980226  17.4127734790806  20.24418807196871  13.32435473361532  120.000000
6.54164  0.000000  0.000000  0.000000  -20.181607490881152  3.323428593078589  -16.08404687956689  52.07707907631352  18.037909017152106  10.347694074211239  16.01551675445011  14.327894445966685  20.895498209258818  14.040770275553575  120.000000
6.59526  0.000000  0.000000  0.000000  -20.62735784519379  3.3788351217369175  -14.918495216475437  52.393086363490355  18.55819863527788  9.926948255639681  18.87285066008318  11.679128478727806  21.330155629315247  14.838626048026843  120.000000
6.64888  0.000000  0.000000  0.000000  -20.966032419914814  3.422759179436435  -13.668737162648181  52.80112145437238  18.980110200547088  9.519378453553648  21.682971455012666  9.432363674876232  21.35015237194671  15.630499360965615  120.000000
6.702500000000001  0.000000  0.000000  0.000000  -21.2342557403206  3.473155265173246  -12.38250961367422  53.245892656541216  19.29702764862449  9.121611161309094  24.764023646958254  7.548704829826134  20.56840273345134  16.32475722913316  120.000000
6.75612  0.000000  0.000000  0.000000  -21.47035740862406  3.539213592654796  -11.109424070194683  53.672869777036404  19.5013530740024  8.735735153589484  28.608104101596307  5.985236924898759  18.471283222841326  16.855286765247914  120.000000
6.80974  0.000000  0.000000  0.000000  -21.69813777693378  3.6198010843802817  -9.889342848947848  54.040052332197  19.59595191319802  8.366563357567546  33.8021093458876  4.7057701377927055  14.505631331417986  17.197904780311596  120.000000
